# xmcd CD database file
#
# Track frame offsets:
#	150
#	22977
#	43423
#	64525
#	88982
#	106972
#	128216
#	150164
#	178591
#	191338
#
# Disc length: 2799 seconds
#
# Revision: 0
# Processed by: cddbd v1.5.2PL0 Copyright (c) Steve Scherf et al.
# Submitted via: CDex 1.70beta2
#
DISCID=7a0aed0a
DTITLE=Friedemann - Echoes of a Skattered Sky
DYEAR=2012
DGENRE=New Age
TTITLE0=Wing your Way, Butterfly
TTITLE1=On The Shropshire Hills
TTITLE2=Dancing On The Blue Lake
TTITLE3=Echoes of a Skattered Sky
TTITLE4=Running In Three
TTITLE5=Sad Samba
TTITLE6=Losgelassen
TTITLE7=Farewell Miss U
TTITLE8=Tuning
TTITLE9=Take-Off
EXTD=YEAR: 2012
EXTT0=
EXTT1=
EXTT2=
EXTT3=
EXTT4=
EXTT5=
EXTT6=
EXTT7=
EXTT8=
EXTT9=
PLAYORDER=
